<svg width="400" height="400" viewBox="0 0 400 400" fill="none" xmlns="http://www.w3.org/2000/svg">
<rect width="400" height="400" fill="#1E1E1E"/>
<g clip-path="url(#clip0_0_1)">
<g filter="url(#filter0_d_0_1)">
<rect width="400" height="400" rx="5" fill="#FFA500"/>
</g>
<g filter="url(#filter1_d_0_1)">
<path d="M115.744 95.12C115.104 95.6533 113.904 96.3733 112.144 97.28C110.438 98.1867 108.331 98.9867 105.824 99.68C103.318 100.373 100.544 100.693 97.5044 100.64C92.8644 100.533 88.7044 99.7067 85.0244 98.16C81.3977 96.56 78.3044 94.4 75.7444 91.68C73.2377 88.96 71.3177 85.84 69.9844 82.32C68.651 78.8 67.9844 75.04 67.9844 71.04C67.9844 66.56 68.651 62.4533 69.9844 58.72C71.371 54.9867 73.3177 51.76 75.8244 49.04C78.3844 46.32 81.4244 44.2133 84.9444 42.72C88.4644 41.2267 92.3577 40.48 96.6244 40.48C100.571 40.48 104.064 41.0133 107.104 42.08C110.144 43.1467 112.624 44.2933 114.544 45.52L109.984 56.48C108.651 55.4667 106.864 54.4267 104.624 53.36C102.438 52.24 99.9044 51.68 97.0244 51.68C94.7844 51.68 92.6244 52.16 90.5444 53.12C88.5177 54.0267 86.7044 55.3333 85.1044 57.04C83.5577 58.7467 82.331 60.7467 81.4244 63.04C80.5177 65.28 80.0644 67.7333 80.0644 70.4C80.0644 73.2267 80.4644 75.8133 81.2644 78.16C82.1177 80.5067 83.3177 82.5333 84.8644 84.24C86.411 85.8933 88.251 87.1733 90.3844 88.08C92.571 88.9867 95.0244 89.44 97.7444 89.44C100.891 89.44 103.584 88.9333 105.824 87.92C108.064 86.9067 109.771 85.84 110.944 84.72L115.744 95.12ZM120.726 100L147.286 38.8H147.926L174.486 100H161.046L144.086 56.96L152.486 51.2L132.166 100H120.726ZM138.886 78.72H156.566L160.646 88.48H135.286L138.886 78.72ZM174.303 41.12H213.983V52.32H199.663V100H188.063V52.32H174.303V41.12ZM267.307 95.12C266.667 95.6533 265.467 96.3733 263.707 97.28C262 98.1867 259.894 98.9867 257.387 99.68C254.88 100.373 252.107 100.693 249.067 100.64C244.427 100.533 240.267 99.7067 236.587 98.16C232.96 96.56 229.867 94.4 227.307 91.68C224.8 88.96 222.88 85.84 221.547 82.32C220.214 78.8 219.547 75.04 219.547 71.04C219.547 66.56 220.214 62.4533 221.547 58.72C222.934 54.9867 224.88 51.76 227.387 49.04C229.947 46.32 232.987 44.2133 236.507 42.72C240.027 41.2267 243.92 40.48 248.187 40.48C252.134 40.48 255.627 41.0133 258.667 42.08C261.707 43.1467 264.187 44.2933 266.107 45.52L261.547 56.48C260.214 55.4667 258.427 54.4267 256.187 53.36C254 52.24 251.467 51.68 248.587 51.68C246.347 51.68 244.187 52.16 242.107 53.12C240.08 54.0267 238.267 55.3333 236.667 57.04C235.12 58.7467 233.894 60.7467 232.987 63.04C232.08 65.28 231.627 67.7333 231.627 70.4C231.627 73.2267 232.027 75.8133 232.827 78.16C233.68 80.5067 234.88 82.5333 236.427 84.24C237.974 85.8933 239.814 87.1733 241.947 88.08C244.134 88.9867 246.587 89.44 249.307 89.44C252.454 89.44 255.147 88.9333 257.387 87.92C259.627 86.9067 261.334 85.84 262.507 84.72L267.307 95.12ZM328.448 41.12V100H316.848V76.08H290.528V100H278.928V41.12H290.528V64.88H316.848V41.12H328.448Z" fill="#333333"/>
</g>
<g filter="url(#filter2_d_0_1)">
<path d="M121.744 95.12C121.104 95.6533 119.904 96.3733 118.144 97.28C116.438 98.1867 114.331 98.9867 111.824 99.68C109.318 100.373 106.544 100.693 103.504 100.64C98.8644 100.533 94.7044 99.7067 91.0244 98.16C87.3977 96.56 84.3044 94.4 81.7444 91.68C79.2377 88.96 77.3177 85.84 75.9844 82.32C74.651 78.8 73.9844 75.04 73.9844 71.04C73.9844 66.56 74.651 62.4533 75.9844 58.72C77.371 54.9867 79.3177 51.76 81.8244 49.04C84.3844 46.32 87.4244 44.2133 90.9444 42.72C94.4644 41.2267 98.3577 40.48 102.624 40.48C106.571 40.48 110.064 41.0133 113.104 42.08C116.144 43.1467 118.624 44.2933 120.544 45.52L115.984 56.48C114.651 55.4667 112.864 54.4267 110.624 53.36C108.438 52.24 105.904 51.68 103.024 51.68C100.784 51.68 98.6244 52.16 96.5444 53.12C94.5177 54.0267 92.7044 55.3333 91.1044 57.04C89.5577 58.7467 88.331 60.7467 87.4244 63.04C86.5177 65.28 86.0644 67.7333 86.0644 70.4C86.0644 73.2267 86.4644 75.8133 87.2644 78.16C88.1177 80.5067 89.3177 82.5333 90.8644 84.24C92.411 85.8933 94.251 87.1733 96.3844 88.08C98.571 88.9867 101.024 89.44 103.744 89.44C106.891 89.44 109.584 88.9333 111.824 87.92C114.064 86.9067 115.771 85.84 116.944 84.72L121.744 95.12ZM126.726 100L153.286 38.8H153.926L180.486 100H167.046L150.086 56.96L158.486 51.2L138.166 100H126.726ZM144.886 78.72H162.566L166.646 88.48H141.286L144.886 78.72ZM180.303 41.12H219.983V52.32H205.663V100H194.063V52.32H180.303V41.12ZM273.307 95.12C272.667 95.6533 271.467 96.3733 269.707 97.28C268 98.1867 265.894 98.9867 263.387 99.68C260.88 100.373 258.107 100.693 255.067 100.64C250.427 100.533 246.267 99.7067 242.587 98.16C238.96 96.56 235.867 94.4 233.307 91.68C230.8 88.96 228.88 85.84 227.547 82.32C226.214 78.8 225.547 75.04 225.547 71.04C225.547 66.56 226.214 62.4533 227.547 58.72C228.934 54.9867 230.88 51.76 233.387 49.04C235.947 46.32 238.987 44.2133 242.507 42.72C246.027 41.2267 249.92 40.48 254.187 40.48C258.134 40.48 261.627 41.0133 264.667 42.08C267.707 43.1467 270.187 44.2933 272.107 45.52L267.547 56.48C266.214 55.4667 264.427 54.4267 262.187 53.36C260 52.24 257.467 51.68 254.587 51.68C252.347 51.68 250.187 52.16 248.107 53.12C246.08 54.0267 244.267 55.3333 242.667 57.04C241.12 58.7467 239.894 60.7467 238.987 63.04C238.08 65.28 237.627 67.7333 237.627 70.4C237.627 73.2267 238.027 75.8133 238.827 78.16C239.68 80.5067 240.88 82.5333 242.427 84.24C243.974 85.8933 245.814 87.1733 247.947 88.08C250.134 88.9867 252.587 89.44 255.307 89.44C258.454 89.44 261.147 88.9333 263.387 87.92C265.627 86.9067 267.334 85.84 268.507 84.72L273.307 95.12ZM334.448 41.12V100H322.848V76.08H296.528V100H284.928V41.12H296.528V64.88H322.848V41.12H334.448Z" fill="#333333"/>
</g>
<g filter="url(#filter3_d_0_1)">
<path d="M143.03 180V118.72H143.11L175.83 165.12L170.87 164L203.51 118.72H203.67V180H192.07V144.88L192.79 150.88L172.87 179.2H172.71L152.23 150.88L154.23 145.36V180H143.03ZM218.889 121.12H259.049V132.32H230.489V144.88H255.769V156.08H230.489V168.8H260.169V180H218.889V121.12Z" fill="#00FF00"/>
</g>
<g filter="url(#filter4_d_0_1)">
<path d="M149.03 180V118.72H149.11L181.83 165.12L176.87 164L209.51 118.72H209.67V180H198.07V144.88L198.79 150.88L178.87 179.2H178.71L158.23 150.88L160.23 145.36V180H149.03ZM224.889 121.12H265.049V132.32H236.489V144.88H261.769V156.08H236.489V168.8H266.169V180H224.889V121.12Z" fill="#00FF00"/>
</g>
<g filter="url(#filter5_d_0_1)">
<path d="M67.0531 201.12H78.6531V260H67.0531V201.12ZM93.85 201.12H130.65V212.32H105.45V225.68H127.29V236.88H105.45V260H93.85V201.12ZM183.114 241.68L161.434 201.12H175.754L190.954 231.68L187.514 231.92L202.474 201.12H216.794L194.714 241.68V260H183.114V241.68ZM215.953 230.64C215.953 226.587 216.726 222.747 218.273 219.12C219.82 215.493 221.953 212.293 224.673 209.52C227.446 206.693 230.646 204.48 234.273 202.88C237.9 201.28 241.793 200.48 245.953 200.48C250.06 200.48 253.926 201.28 257.553 202.88C261.18 204.48 264.38 206.693 267.153 209.52C269.98 212.293 272.166 215.493 273.713 219.12C275.313 222.747 276.113 226.587 276.113 230.64C276.113 234.8 275.313 238.693 273.713 242.32C272.166 245.947 269.98 249.147 267.153 251.92C264.38 254.64 261.18 256.773 257.553 258.32C253.926 259.867 250.06 260.64 245.953 260.64C241.793 260.64 237.9 259.867 234.273 258.32C230.646 256.773 227.446 254.64 224.673 251.92C221.953 249.147 219.82 245.947 218.273 242.32C216.726 238.693 215.953 234.8 215.953 230.64ZM227.953 230.64C227.953 233.253 228.406 235.707 229.313 238C230.273 240.24 231.58 242.24 233.233 244C234.94 245.707 236.886 247.04 239.073 248C241.313 248.96 243.74 249.44 246.353 249.44C248.86 249.44 251.18 248.96 253.313 248C255.5 247.04 257.393 245.707 258.993 244C260.593 242.24 261.846 240.24 262.753 238C263.66 235.707 264.113 233.253 264.113 230.64C264.113 227.973 263.633 225.493 262.673 223.2C261.766 220.907 260.486 218.907 258.833 217.2C257.233 215.44 255.34 214.08 253.153 213.12C250.966 212.16 248.593 211.68 246.033 211.68C243.473 211.68 241.1 212.16 238.913 213.12C236.726 214.08 234.806 215.44 233.153 217.2C231.5 218.907 230.22 220.907 229.313 223.2C228.406 225.493 227.953 227.973 227.953 230.64ZM298.078 238.24C298.078 240.107 298.638 241.893 299.758 243.6C300.878 245.307 302.345 246.693 304.158 247.76C306.025 248.827 308.051 249.36 310.238 249.36C312.638 249.36 314.771 248.827 316.638 247.76C318.505 246.693 319.971 245.307 321.038 243.6C322.158 241.893 322.718 240.107 322.718 238.24V201.12H334.158V238.48C334.158 242.8 333.091 246.64 330.958 250C328.825 253.307 325.945 255.92 322.318 257.84C318.691 259.707 314.665 260.64 310.238 260.64C305.865 260.64 301.865 259.707 298.238 257.84C294.665 255.92 291.811 253.307 289.678 250C287.545 246.64 286.478 242.8 286.478 238.48V201.12H298.078V238.24Z" fill="#333333"/>
</g>
<g filter="url(#filter6_d_0_1)">
<path d="M73.0531 201.12H84.6531V260H73.0531V201.12ZM99.85 201.12H136.65V212.32H111.45V225.68H133.29V236.88H111.45V260H99.85V201.12ZM189.114 241.68L167.434 201.12H181.754L196.954 231.68L193.514 231.92L208.474 201.12H222.794L200.714 241.68V260H189.114V241.68ZM221.953 230.64C221.953 226.587 222.726 222.747 224.273 219.12C225.82 215.493 227.953 212.293 230.673 209.52C233.446 206.693 236.646 204.48 240.273 202.88C243.9 201.28 247.793 200.48 251.953 200.48C256.06 200.48 259.926 201.28 263.553 202.88C267.18 204.48 270.38 206.693 273.153 209.52C275.98 212.293 278.166 215.493 279.713 219.12C281.313 222.747 282.113 226.587 282.113 230.64C282.113 234.8 281.313 238.693 279.713 242.32C278.166 245.947 275.98 249.147 273.153 251.92C270.38 254.64 267.18 256.773 263.553 258.32C259.926 259.867 256.06 260.64 251.953 260.64C247.793 260.64 243.9 259.867 240.273 258.32C236.646 256.773 233.446 254.64 230.673 251.92C227.953 249.147 225.82 245.947 224.273 242.32C222.726 238.693 221.953 234.8 221.953 230.64ZM233.953 230.64C233.953 233.253 234.406 235.707 235.313 238C236.273 240.24 237.58 242.24 239.233 244C240.94 245.707 242.886 247.04 245.073 248C247.313 248.96 249.74 249.44 252.353 249.44C254.86 249.44 257.18 248.96 259.313 248C261.5 247.04 263.393 245.707 264.993 244C266.593 242.24 267.846 240.24 268.753 238C269.66 235.707 270.113 233.253 270.113 230.64C270.113 227.973 269.633 225.493 268.673 223.2C267.766 220.907 266.486 218.907 264.833 217.2C263.233 215.44 261.34 214.08 259.153 213.12C256.966 212.16 254.593 211.68 252.033 211.68C249.473 211.68 247.1 212.16 244.913 213.12C242.726 214.08 240.806 215.44 239.153 217.2C237.5 218.907 236.22 220.907 235.313 223.2C234.406 225.493 233.953 227.973 233.953 230.64ZM304.078 238.24C304.078 240.107 304.638 241.893 305.758 243.6C306.878 245.307 308.345 246.693 310.158 247.76C312.025 248.827 314.051 249.36 316.238 249.36C318.638 249.36 320.771 248.827 322.638 247.76C324.505 246.693 325.971 245.307 327.038 243.6C328.158 241.893 328.718 240.107 328.718 238.24V201.12H340.158V238.48C340.158 242.8 339.091 246.64 336.958 250C334.825 253.307 331.945 255.92 328.318 257.84C324.691 259.707 320.665 260.64 316.238 260.64C311.865 260.64 307.865 259.707 304.238 257.84C300.665 255.92 297.811 253.307 295.678 250C293.545 246.64 292.478 242.8 292.478 238.48V201.12H304.078V238.24Z" fill="#333333"/>
</g>
<g filter="url(#filter7_d_0_1)">
<path d="M125.876 295.36C123.636 294.133 121.343 293.12 118.996 292.32C116.703 291.52 114.543 291.12 112.516 291.12C110.009 291.12 108.036 291.627 106.596 292.64C105.156 293.653 104.436 295.173 104.436 297.2C104.436 298.587 104.969 299.84 106.036 300.96C107.156 302.027 108.569 302.987 110.276 303.84C112.036 304.693 113.849 305.467 115.716 306.16C117.423 306.8 119.103 307.573 120.756 308.48C122.463 309.333 123.983 310.427 125.316 311.76C126.649 313.04 127.716 314.667 128.516 316.64C129.316 318.56 129.716 320.933 129.716 323.76C129.716 326.747 128.943 329.52 127.396 332.08C125.849 334.64 123.583 336.72 120.596 338.32C117.609 339.867 113.929 340.64 109.556 340.64C107.316 340.64 105.023 340.427 102.676 340C100.383 339.52 98.1159 338.827 95.8759 337.92C93.6359 336.96 91.4759 335.76 89.3959 334.32L94.5159 325.28C95.9026 326.293 97.3959 327.2 98.9959 328C100.649 328.747 102.303 329.333 103.956 329.76C105.609 330.187 107.129 330.4 108.516 330.4C109.903 330.4 111.289 330.213 112.676 329.84C114.116 329.413 115.289 328.72 116.196 327.76C117.156 326.8 117.636 325.467 117.636 323.76C117.636 322.587 117.236 321.52 116.436 320.56C115.689 319.6 114.649 318.72 113.316 317.92C112.036 317.12 110.623 316.427 109.076 315.84C107.263 315.147 105.396 314.347 103.476 313.44C101.556 312.533 99.7426 311.44 98.0359 310.16C96.3826 308.827 95.0226 307.2 93.9559 305.28C92.9426 303.307 92.4359 300.907 92.4359 298.08C92.4359 294.667 93.1826 291.707 94.6759 289.2C96.2226 286.693 98.3826 284.72 101.156 283.28C103.929 281.787 107.129 280.96 110.756 280.8C115.503 280.8 119.343 281.36 122.276 282.48C125.263 283.6 127.929 284.933 130.276 286.48L125.876 295.36ZM185.237 335.12C184.597 335.653 183.397 336.373 181.637 337.28C179.93 338.187 177.823 338.987 175.317 339.68C172.81 340.373 170.037 340.693 166.997 340.64C162.357 340.533 158.197 339.707 154.517 338.16C150.89 336.56 147.797 334.4 145.237 331.68C142.73 328.96 140.81 325.84 139.477 322.32C138.143 318.8 137.477 315.04 137.477 311.04C137.477 306.56 138.143 302.453 139.477 298.72C140.863 294.987 142.81 291.76 145.317 289.04C147.877 286.32 150.917 284.213 154.437 282.72C157.957 281.227 161.85 280.48 166.117 280.48C170.063 280.48 173.557 281.013 176.597 282.08C179.637 283.147 182.117 284.293 184.037 285.52L179.477 296.48C178.143 295.467 176.357 294.427 174.117 293.36C171.93 292.24 169.397 291.68 166.517 291.68C164.277 291.68 162.117 292.16 160.037 293.12C158.01 294.027 156.197 295.333 154.597 297.04C153.05 298.747 151.823 300.747 150.917 303.04C150.01 305.28 149.557 307.733 149.557 310.4C149.557 313.227 149.957 315.813 150.757 318.16C151.61 320.507 152.81 322.533 154.357 324.24C155.903 325.893 157.743 327.173 159.877 328.08C162.063 328.987 164.517 329.44 167.237 329.44C170.383 329.44 173.077 328.933 175.317 327.92C177.557 326.907 179.263 325.84 180.437 324.72L185.237 335.12ZM190.218 340L216.778 278.8H217.418L243.978 340H230.538L213.578 296.96L221.978 291.2L201.658 340H190.218ZM208.378 318.72H226.058L230.138 328.48H204.778L208.378 318.72ZM305.281 342.4L260.641 302.08L264.081 304L264.321 340H252.561V278.8H253.041L296.721 318.96L294.161 317.84L293.921 281.12H305.601V342.4H305.281Z" fill="#FF2D00"/>
</g>
<g filter="url(#filter8_d_0_1)">
<path d="M131.876 295.36C129.636 294.133 127.343 293.12 124.996 292.32C122.703 291.52 120.543 291.12 118.516 291.12C116.009 291.12 114.036 291.627 112.596 292.64C111.156 293.653 110.436 295.173 110.436 297.2C110.436 298.587 110.969 299.84 112.036 300.96C113.156 302.027 114.569 302.987 116.276 303.84C118.036 304.693 119.849 305.467 121.716 306.16C123.423 306.8 125.103 307.573 126.756 308.48C128.463 309.333 129.983 310.427 131.316 311.76C132.649 313.04 133.716 314.667 134.516 316.64C135.316 318.56 135.716 320.933 135.716 323.76C135.716 326.747 134.943 329.52 133.396 332.08C131.849 334.64 129.583 336.72 126.596 338.32C123.609 339.867 119.929 340.64 115.556 340.64C113.316 340.64 111.023 340.427 108.676 340C106.383 339.52 104.116 338.827 101.876 337.92C99.6359 336.96 97.4759 335.76 95.3959 334.32L100.516 325.28C101.903 326.293 103.396 327.2 104.996 328C106.649 328.747 108.303 329.333 109.956 329.76C111.609 330.187 113.129 330.4 114.516 330.4C115.903 330.4 117.289 330.213 118.676 329.84C120.116 329.413 121.289 328.72 122.196 327.76C123.156 326.8 123.636 325.467 123.636 323.76C123.636 322.587 123.236 321.52 122.436 320.56C121.689 319.6 120.649 318.72 119.316 317.92C118.036 317.12 116.623 316.427 115.076 315.84C113.263 315.147 111.396 314.347 109.476 313.44C107.556 312.533 105.743 311.44 104.036 310.16C102.383 308.827 101.023 307.2 99.9559 305.28C98.9426 303.307 98.4359 300.907 98.4359 298.08C98.4359 294.667 99.1826 291.707 100.676 289.2C102.223 286.693 104.383 284.72 107.156 283.28C109.929 281.787 113.129 280.96 116.756 280.8C121.503 280.8 125.343 281.36 128.276 282.48C131.263 283.6 133.929 284.933 136.276 286.48L131.876 295.36ZM191.237 335.12C190.597 335.653 189.397 336.373 187.637 337.28C185.93 338.187 183.823 338.987 181.317 339.68C178.81 340.373 176.037 340.693 172.997 340.64C168.357 340.533 164.197 339.707 160.517 338.16C156.89 336.56 153.797 334.4 151.237 331.68C148.73 328.96 146.81 325.84 145.477 322.32C144.143 318.8 143.477 315.04 143.477 311.04C143.477 306.56 144.143 302.453 145.477 298.72C146.863 294.987 148.81 291.76 151.317 289.04C153.877 286.32 156.917 284.213 160.437 282.72C163.957 281.227 167.85 280.48 172.117 280.48C176.063 280.48 179.557 281.013 182.597 282.08C185.637 283.147 188.117 284.293 190.037 285.52L185.477 296.48C184.143 295.467 182.357 294.427 180.117 293.36C177.93 292.24 175.397 291.68 172.517 291.68C170.277 291.68 168.117 292.16 166.037 293.12C164.01 294.027 162.197 295.333 160.597 297.04C159.05 298.747 157.823 300.747 156.917 303.04C156.01 305.28 155.557 307.733 155.557 310.4C155.557 313.227 155.957 315.813 156.757 318.16C157.61 320.507 158.81 322.533 160.357 324.24C161.903 325.893 163.743 327.173 165.877 328.08C168.063 328.987 170.517 329.44 173.237 329.44C176.383 329.44 179.077 328.933 181.317 327.92C183.557 326.907 185.263 325.84 186.437 324.72L191.237 335.12ZM196.218 340L222.778 278.8H223.418L249.978 340H236.538L219.578 296.96L227.978 291.2L207.658 340H196.218ZM214.378 318.72H232.058L236.138 328.48H210.778L214.378 318.72ZM311.281 342.4L266.641 302.08L270.081 304L270.321 340H258.561V278.8H259.041L302.721 318.96L300.161 317.84L299.921 281.12H311.601V342.4H311.281Z" fill="#FF2D00"/>
</g>
</g>
<defs>
<filter id="filter0_d_0_1" x="-4" y="0" width="408" height="408" filterUnits="userSpaceOnUse" color-interpolation-filters="sRGB">
<feFlood flood-opacity="0" result="BackgroundImageFix"/>
<feColorMatrix in="SourceAlpha" type="matrix" values="0 0 0 0 0 0 0 0 0 0 0 0 0 0 0 0 0 0 127 0" result="hardAlpha"/>
<feOffset dy="4"/>
<feGaussianBlur stdDeviation="2"/>
<feComposite in2="hardAlpha" operator="out"/>
<feColorMatrix type="matrix" values="0 0 0 0 0 0 0 0 0 0 0 0 0 0 0 0 0 0 0.25 0"/>
<feBlend mode="normal" in2="BackgroundImageFix" result="effect1_dropShadow_0_1"/>
<feBlend mode="normal" in="SourceGraphic" in2="effect1_dropShadow_0_1" result="shape"/>
</filter>
<filter id="filter1_d_0_1" x="63.9844" y="38.8" width="268.464" height="69.92" filterUnits="userSpaceOnUse" color-interpolation-filters="sRGB">
<feFlood flood-opacity="0" result="BackgroundImageFix"/>
<feColorMatrix in="SourceAlpha" type="matrix" values="0 0 0 0 0 0 0 0 0 0 0 0 0 0 0 0 0 0 127 0" result="hardAlpha"/>
<feOffset dy="4"/>
<feGaussianBlur stdDeviation="2"/>
<feComposite in2="hardAlpha" operator="out"/>
<feColorMatrix type="matrix" values="0 0 0 0 0 0 0 0 0 0 0 0 0 0 0 0 0 0 0.25 0"/>
<feBlend mode="normal" in2="BackgroundImageFix" result="effect1_dropShadow_0_1"/>
<feBlend mode="normal" in="SourceGraphic" in2="effect1_dropShadow_0_1" result="shape"/>
</filter>
<filter id="filter2_d_0_1" x="69.9844" y="38.8" width="268.464" height="69.92" filterUnits="userSpaceOnUse" color-interpolation-filters="sRGB">
<feFlood flood-opacity="0" result="BackgroundImageFix"/>
<feColorMatrix in="SourceAlpha" type="matrix" values="0 0 0 0 0 0 0 0 0 0 0 0 0 0 0 0 0 0 127 0" result="hardAlpha"/>
<feOffset dy="4"/>
<feGaussianBlur stdDeviation="2"/>
<feComposite in2="hardAlpha" operator="out"/>
<feColorMatrix type="matrix" values="0 0 0 0 0 0 0 0 0 0 0 0 0 0 0 0 0 0 0.25 0"/>
<feBlend mode="normal" in2="BackgroundImageFix" result="effect1_dropShadow_0_1"/>
<feBlend mode="normal" in="SourceGraphic" in2="effect1_dropShadow_0_1" result="shape"/>
</filter>
<filter id="filter3_d_0_1" x="139.03" y="118.72" width="125.139" height="69.28" filterUnits="userSpaceOnUse" color-interpolation-filters="sRGB">
<feFlood flood-opacity="0" result="BackgroundImageFix"/>
<feColorMatrix in="SourceAlpha" type="matrix" values="0 0 0 0 0 0 0 0 0 0 0 0 0 0 0 0 0 0 127 0" result="hardAlpha"/>
<feOffset dy="4"/>
<feGaussianBlur stdDeviation="2"/>
<feComposite in2="hardAlpha" operator="out"/>
<feColorMatrix type="matrix" values="0 0 0 0 0 0 0 0 0 0 0 0 0 0 0 0 0 0 0.25 0"/>
<feBlend mode="normal" in2="BackgroundImageFix" result="effect1_dropShadow_0_1"/>
<feBlend mode="normal" in="SourceGraphic" in2="effect1_dropShadow_0_1" result="shape"/>
</filter>
<filter id="filter4_d_0_1" x="145.03" y="118.72" width="125.139" height="69.28" filterUnits="userSpaceOnUse" color-interpolation-filters="sRGB">
<feFlood flood-opacity="0" result="BackgroundImageFix"/>
<feColorMatrix in="SourceAlpha" type="matrix" values="0 0 0 0 0 0 0 0 0 0 0 0 0 0 0 0 0 0 127 0" result="hardAlpha"/>
<feOffset dy="4"/>
<feGaussianBlur stdDeviation="2"/>
<feComposite in2="hardAlpha" operator="out"/>
<feColorMatrix type="matrix" values="0 0 0 0 0 0 0 0 0 0 0 0 0 0 0 0 0 0 0.25 0"/>
<feBlend mode="normal" in2="BackgroundImageFix" result="effect1_dropShadow_0_1"/>
<feBlend mode="normal" in="SourceGraphic" in2="effect1_dropShadow_0_1" result="shape"/>
</filter>
<filter id="filter5_d_0_1" x="63.0531" y="200.48" width="275.105" height="68.16" filterUnits="userSpaceOnUse" color-interpolation-filters="sRGB">
<feFlood flood-opacity="0" result="BackgroundImageFix"/>
<feColorMatrix in="SourceAlpha" type="matrix" values="0 0 0 0 0 0 0 0 0 0 0 0 0 0 0 0 0 0 127 0" result="hardAlpha"/>
<feOffset dy="4"/>
<feGaussianBlur stdDeviation="2"/>
<feComposite in2="hardAlpha" operator="out"/>
<feColorMatrix type="matrix" values="0 0 0 0 0 0 0 0 0 0 0 0 0 0 0 0 0 0 0.25 0"/>
<feBlend mode="normal" in2="BackgroundImageFix" result="effect1_dropShadow_0_1"/>
<feBlend mode="normal" in="SourceGraphic" in2="effect1_dropShadow_0_1" result="shape"/>
</filter>
<filter id="filter6_d_0_1" x="69.0531" y="200.48" width="275.105" height="68.16" filterUnits="userSpaceOnUse" color-interpolation-filters="sRGB">
<feFlood flood-opacity="0" result="BackgroundImageFix"/>
<feColorMatrix in="SourceAlpha" type="matrix" values="0 0 0 0 0 0 0 0 0 0 0 0 0 0 0 0 0 0 127 0" result="hardAlpha"/>
<feOffset dy="4"/>
<feGaussianBlur stdDeviation="2"/>
<feComposite in2="hardAlpha" operator="out"/>
<feColorMatrix type="matrix" values="0 0 0 0 0 0 0 0 0 0 0 0 0 0 0 0 0 0 0.25 0"/>
<feBlend mode="normal" in2="BackgroundImageFix" result="effect1_dropShadow_0_1"/>
<feBlend mode="normal" in="SourceGraphic" in2="effect1_dropShadow_0_1" result="shape"/>
</filter>
<filter id="filter7_d_0_1" x="85.3959" y="278.8" width="224.205" height="71.6" filterUnits="userSpaceOnUse" color-interpolation-filters="sRGB">
<feFlood flood-opacity="0" result="BackgroundImageFix"/>
<feColorMatrix in="SourceAlpha" type="matrix" values="0 0 0 0 0 0 0 0 0 0 0 0 0 0 0 0 0 0 127 0" result="hardAlpha"/>
<feOffset dy="4"/>
<feGaussianBlur stdDeviation="2"/>
<feComposite in2="hardAlpha" operator="out"/>
<feColorMatrix type="matrix" values="0 0 0 0 0 0 0 0 0 0 0 0 0 0 0 0 0 0 0.25 0"/>
<feBlend mode="normal" in2="BackgroundImageFix" result="effect1_dropShadow_0_1"/>
<feBlend mode="normal" in="SourceGraphic" in2="effect1_dropShadow_0_1" result="shape"/>
</filter>
<filter id="filter8_d_0_1" x="91.3959" y="278.8" width="224.205" height="71.6" filterUnits="userSpaceOnUse" color-interpolation-filters="sRGB">
<feFlood flood-opacity="0" result="BackgroundImageFix"/>
<feColorMatrix in="SourceAlpha" type="matrix" values="0 0 0 0 0 0 0 0 0 0 0 0 0 0 0 0 0 0 127 0" result="hardAlpha"/>
<feOffset dy="4"/>
<feGaussianBlur stdDeviation="2"/>
<feComposite in2="hardAlpha" operator="out"/>
<feColorMatrix type="matrix" values="0 0 0 0 0 0 0 0 0 0 0 0 0 0 0 0 0 0 0.25 0"/>
<feBlend mode="normal" in2="BackgroundImageFix" result="effect1_dropShadow_0_1"/>
<feBlend mode="normal" in="SourceGraphic" in2="effect1_dropShadow_0_1" result="shape"/>
</filter>
<clipPath id="clip0_0_1">
<rect width="400" height="400" fill="white"/>
</clipPath>
</defs>
</svg>
