<svg width="265" height="262" viewBox="0 0 265 262" fill="none" xmlns="http://www.w3.org/2000/svg">
<circle cx="137" cy="134" r="124" transform="rotate(-180 137 134)" fill="#FF8C00" stroke="white" stroke-width="8"/>
<circle cx="169" cy="168" r="46" transform="rotate(-180 169 168)" stroke="#333333" stroke-width="4"/>
<circle cx="182" cy="179" r="30.5" transform="rotate(-180 182 179)" stroke="#333333" stroke-width="3"/>
<circle cx="160" cy="157" r="61" transform="rotate(-180 160 157)" stroke="#333333" stroke-width="6"/>
<circle cx="151" cy="147" r="76" transform="rotate(-180 151 147)" stroke="#333333" stroke-width="8"/>
<circle cx="137" cy="134" r="106" transform="rotate(-180 137 134)" stroke="#333333" stroke-width="12"/>
<circle cx="144" cy="142" r="91" transform="rotate(-180 144 142)" stroke="#333333" stroke-width="10"/>
<g filter="url(#filter0_d_3_2)">
<path d="M183 180L160.827 96.2841L99.4133 157.345L183 180ZM4.68144 11.288L130.089 137.421L140.727 126.845L15.3186 0.712004L4.68144 11.288Z" fill="#00FF00"/>
</g>
<defs>
<filter id="filter0_d_3_2" x="0.681438" y="0.712006" width="186.319" height="187.288" filterUnits="userSpaceOnUse" color-interpolation-filters="sRGB">
<feFlood flood-opacity="0" result="BackgroundImageFix"/>
<feColorMatrix in="SourceAlpha" type="matrix" values="0 0 0 0 0 0 0 0 0 0 0 0 0 0 0 0 0 0 127 0" result="hardAlpha"/>
<feOffset dy="4"/>
<feGaussianBlur stdDeviation="2"/>
<feComposite in2="hardAlpha" operator="out"/>
<feColorMatrix type="matrix" values="0 0 0 0 0 0 0 0 0 0 0 0 0 0 0 0 0 0 0.25 0"/>
<feBlend mode="normal" in2="BackgroundImageFix" result="effect1_dropShadow_3_2"/>
<feBlend mode="normal" in="SourceGraphic" in2="effect1_dropShadow_3_2" result="shape"/>
</filter>
</defs>
</svg>
